PathFileType	4	(X/Y/Z)	D:\Research_projects\MuscleProsody\BulkSports2Dtrack\RetrackedSports2D\p1_sample60_cam3\p1_sample60_cam3_Sports2D\p1_sample60_cam3_Sports2D_m_person00.trc
DataRate	CameraRate	NumFrames	NumMarkers	Units	OrigDataRate	OrigDataStartFrame	OrigNumFrames
60	60	7	22	m	60	97	780
Frame#	Time	Hip			RHip			RKnee			RAnkle			RBigToe			RSmallToe			RHeel			LHip			LKnee			LAnkle			LBigToe			LSmallToe			LHeel			Neck			Head			Nose			RShoulder			RElbow			RWrist			LShoulder			LElbow			LWrist		
		X1	Y1	Z1	X2	Y2	Z2	X3	Y3	Z3	X4	Y4	Z4	X5	Y5	Z5	X6	Y6	Z6	X7	Y7	Z7	X8	Y8	Z8	X9	Y9	Z9	X10	Y10	Z10	X11	Y11	Z11	X12	Y12	Z12	X13	Y13	Z13	X14	Y14	Z14	X15	Y15	Z15	X16	Y16	Z16	X17	Y17	Z17	X18	Y18	Z18	X19	Y19	Z19	X20	Y20	Z20	X21	Y21	Z21	X22	Y22	Z22
97	1.6166666666666667	0.49810053857326525	0.7818689223929475	0.0301	0.4300027989432577	0.7331877403264765	0.0301	0.6149747164242995	0.40766878699614845	0.129	0.7880246019874487	0.14137328788457718	0.023	0.7456369162392836	0.0006158642968027987	0.2179	0.71219835728173	0.014490741207501764	0.1804	0.8455484448965314	0.11323952022845371	-0.0119	0.5963264722961802	0.7921834704578228	0.0301	0.7634839237768302	0.45513572576642625	0.129	0.9432084819578839	0.1614095480774059	0.023	0.8709416977164631	0.004967462510866313	0.2179	0.9428943543462753	0.023289533406316915	0.1804	1.0008314146265649	0.13643609455866046	-0.0119	0.24564054917790917	1.3733325607760478	0.0008	0.06843260590712712	1.5989740945624353	0.0655	0.04173095232963508	1.4193652847810574	0.1076	0.16912256168519493	1.2222702497809919	-0.01275	0.1643713596523135	0.9742998946786169	0.0702	0.06686754932282145	0.8895462241533021	0.1076	0.45720227470865255	1.3609703119457743	-0.01275	0.651664400528737	1.1112533961932392	0.0702	0.7013651290293517	0.8422979115582396	0.1076
98	1.6333333333333333	0.49799619957652236	0.7829589819230149	0.0301	0.4299753343193745	0.7339636024369914	0.0301	0.6146651092454408	0.4081623933334907	0.129	0.7877894935917573	0.14167555365998633	0.023	0.745135659168485	0.0008722759583262905	0.2179	0.712027203983513	0.014752241935583672	0.1804	0.8455242281757064	0.11325089289266735	-0.0119	0.5962683667855415	0.7934188120288906	0.0301	0.7635756707278716	0.4560720275964367	0.129	0.9426646138554038	0.16144085390812632	0.023	0.8694862361479644	0.003945687347932882	0.2179	0.9421693467195698	0.022601179851064874	0.1804	1.0005682656601327	0.13649352058005973	-0.0119	0.2453275353178148	1.3731784895347725	0.0008	0.06751612796709858	1.5986702623575504	0.0655	0.04112628059767621	1.4187427941414232	0.1076	0.16889066157091975	1.2234288037036671	-0.01275	0.16173202740177717	0.9785413961153915	0.0702	0.07103137232724319	0.8919849897169138	0.1076	0.45584805487207697	1.3612617419774515	-0.01275	0.6534390376263719	1.1151523946483202	0.0702	0.6908570607542257	0.8487871329579753	0.1076
99	1.65	0.49787199739724397	0.7843133694447142	0.0301	0.4299636686192984	0.7349198426793506	0.0301	0.6143235999104422	0.40876704506989436	0.129	0.7874978746366643	0.14203406702622237	0.023	0.7444828183618408	0.0011438278639575848	0.2179	0.7117348270208605	0.01499289222038082	0.1804	0.8454877704880723	0.11328160643611139	-0.0119	0.5962317971936104	0.7948845189341935	0.0301	0.7636324845343471	0.45714921417469767	0.129	0.9421244081277923	0.16153595721935282	0.023	0.8680606122325056	0.0029659454943456037	0.2179	0.9414693392594401	0.02192434553117497	0.1804	1.0003692161776148	0.13658110466933376	-0.0119	0.2449671717687655	1.3730369664820212	0.0008	0.0665370078680181	1.5982919907863182	0.0655	0.04052628868687983	1.4180985977341618	0.1076	0.16850888724910537	1.2244617649412817	-0.01275	0.1580445294214827	0.9826728154505204	0.0702	0.07184410219609107	0.8963315225529652	0.1076	0.45427852093628357	1.3617442429395339	-0.01275	0.6553209964390924	1.1199436741842168	0.0702	0.6795769591445425	0.8584029349559117	0.1076
100	1.6666666666666667	0.49772940442263386	0.7859275583170721	0.0301	0.4299524867896035	0.7360798501157715	0.0301	0.6139636122743873	0.4094805884074557	0.129	0.7871563630602034	0.1424406776137927	0.023	0.7437167533085252	0.0014042944469811983	0.2179	0.7113342182507663	0.015202631707538104	0.1804	0.8454382755068621	0.11335748977041582	-0.0119	0.5961766217924928	0.7965674943994323	0.0301	0.7636219306296356	0.45832213856351256	0.129	0.9416003879939906	0.16168649537268034	0.023	0.8667194721921219	0.0020729268461742536	0.2179	0.9408089302361674	0.021293034589572074	0.1804	1.0002315055854587	0.13665308686272434	-0.0119	0.2446015596380419	1.3729097475711833	0.0008	0.06554781994982535	1.597847870000112	0.0655	0.040005530304834176	1.4174821360797778	0.1076	0.1680153441271618	1.2253370479000996	-0.01275	0.15335503983106824	0.9865925522608942	0.0702	0.06899753912343207	0.9019453706722876	0.1076	0.45253854994545994	1.3624647914114238	-0.01275	0.6572910400737939	1.125668238778776	0.0702	0.6680914603533981	0.8717251105497295	0.1076
101	1.6833333333333333	0.49757447208583994	0.787773569450092	0.0301	0.4299242510098244	0.7374531465663836	0.0301	0.6135844876268212	0.41030475525915155	0.129	0.7867708001108694	0.14289555777702426	0.023	0.742880537966906	0.0016274658330731617	0.2179	0.710843862844768	0.015372881842753037	0.1804	0.8453778410053098	0.11351800553344919	-0.0119	0.5960545576251307	0.7984437980126181	0.0301	0.7635180270748466	0.4595509479694418	0.129	0.9411123621236246	0.16188467879248564	0.023	0.8655281251137406	0.001307814585432667	0.2179	0.940219610446069	0.02073554891985501	0.1804	1.000150129299314	0.13669041028454199	-0.0119	0.2442587541106079	1.3727974184282281	0.0008	0.06457309539355809	1.5973571267891329	0.0655	0.03962807154130355	1.4169289900674942	0.1076	0.16745423251298405	1.2260362668067495	-0.01275	0.14777039175694548	0.9902386468649749	0.0702	0.06239851719845968	0.9082123299587624	0.1076	0.45068121229905367	1.3634475355278919	-0.01275	0.6593542936223181	1.1323622124925816	0.0702	0.6570617361347211	0.8892453575843253	0.1076
102	1.7	0.4974139384762358	0.7897932129627198	0.0301	0.4298644327668323	0.7390406368206756	0.0301	0.6131640682771407	0.41123803061373243	0.129	0.7863472475128904	0.14340119876072518	0.023	0.7420064629957197	0.001788141479787535	0.2179	0.7102824832671276	0.015487640581487624	0.1804	0.8453135472919004	0.11380382939667899	-0.0119	0.595811048866957	0.8004763963953244	0.0301	0.7632992491229296	0.4607937903739687	0.129	0.940688832302415	0.16212963359530055	0.023	0.8645739084945083	0.0007211790138177065	0.2179	0.939750314646044	0.02027212655727848	0.1804	1.0001304960891966	0.1367162085316534	-0.0119	0.24395700459377193	1.3727072227127746	0.0008	0.06359451134117375	1.5968482354288591	0.0655	0.039425442256887155	1.4164610018976134	0.1076	0.16688175881752876	1.2265435895937316	-0.01275	0.14144971474974127	0.9935607714419397	0.0702	0.05215370933017696	0.9145839910212525	0.1076	0.44876681423145454	1.3646845879072087	-0.01275	0.6615326637782308	1.1400688075824612	0.0702	0.6471502350719187	0.9112920468416503	0.1076
103	1.7166666666666666	0.49724782669169737	0.7919004771028408	0.0301	0.42976278320513794	0.7408310797057799	0.0301	0.612681067761861	0.412258478399245	0.129	0.7859016786968972	0.14394420021872076	0.023	0.7411129159469915	0.001877936609534757	0.2179	0.7096708263204151	0.015537907637972722	0.1804	0.8452655601514988	0.11423330936422182	-0.0119	0.5953976773833483	0.8026153088144528	0.0301	0.7629555955434307	0.46199819878494003	0.129	0.9403586496047386	0.1624258311236746	0.023	0.8639435542647632	0.0003728596654064616	0.2179	0.939448450131917	0.01992765945896421	0.1804	1.000179035723078	0.13677914780653322	-0.0119	0.24370625521892592	1.3726447519858418	0.0008	0.06256269493847572	1.596338415033309	0.0655	0.039387879824696624	1.4160774610567557	0.1076	0.16636303638617236	1.226851663990425	-0.01275	0.1346038587373455	0.9964991049346998	0.0702	0.03856615238453906	0.9205954845568073	0.1076	0.446852378329523	1.3661435123682555	-0.01275	0.6638446211383834	1.1488631689225344	0.0702	0.6389472069017963	0.9379724119903549	0.1076
